# xmcd
#
# Track frame offsets:
# 150
# 29250
# 55153
# 77857
# 110677
# 150667
# 187850
# 218491
# 249408
# 274404
# 297284
# 328349
#
# Disc length: 4763 seconds
#
#
# Revision: 0
# Processed by: cddbd v1.5.2PL0 Copyright (c) Steve Scherf et al.
# Submitted via: FreeRIP 2.951 
#
DISCID=ab12990c
DTITLE=ZAG - L'AIGUILLE
DYEAR=2006
DGENRE=Ethnic
TTITLE0=L'Aiguille
TTITLE1=Moutambou
TTITLE2=N'Koumbi
TTITLE3=Cherie Ani
TTITLE4=Elle a Deuex Diables
TTITLE5=Ze T'Aime
TTITLE6=Mon Enfant
TTITLE7=Nsimba Kouani
TTITLE8=Mouche
TTITLE9=Virginitè
TTITLE10=Mama Na Bana
TTITLE11=Give Me Some Love
EXTD=
EXTT0=
EXTT1=
EXTT2=
EXTT3=
EXTT4=
EXTT5=
EXTT6=
EXTT7=
EXTT8=
EXTT9=
EXTT10=
EXTT11=
PLAYORDER=
